<svg id="Capa_1" enable-background="new 0 0 512 512" height="512" viewBox="0 0 512 512" width="512" xmlns="http://www.w3.org/2000/svg"><g><path d="m256 482v-30c108.075 0 196-87.925 196-196s-87.925-196-196-196v-30c60.367 0 117.12 23.508 159.807 66.193 42.685 42.687 66.193 99.44 66.193 159.807s-23.508 117.12-66.193 159.807c-42.687 42.685-99.44 66.193-159.807 66.193z" fill="#dbdbdb"/><path d="m256 482c-60.367 0-117.12-23.508-159.807-66.193-42.685-42.687-66.193-99.44-66.193-159.807s23.508-117.12 66.193-159.807c42.687-42.685 99.44-66.193 159.807-66.193v30c-108.075 0-196 87.925-196 196s87.925 196 196 196z" fill="#f2f2f2"/><path d="m256 211-136 45c0 75.111 60.889 136 136 136z" fill="#80eeff"/><path d="m256 211v181c75.111 0 136-60.889 136-136z" fill="#0f9af0"/><path d="m324 256-128-45 60 181c37.555 0 68-60.889 68-136z" fill="#13bdf7"/><path d="m188 256c0 75.111 30.445 136 68 136v-181z" fill="#0fdbff"/><path d="m256 0-25.592 45 25.592 45c24.853 0 45-20.147 45-45s-20.147-45-45-45z" fill="#f86d24"/><path d="m211 45c0 24.853 20.147 45 45 45v-90c-24.853 0-45 20.147-45 45z" fill="#f98825"/><circle cx="131.977" cy="85.297" fill="#faa52d" r="45"/><circle cx="55.327" cy="190.797" fill="#ffc145" r="45"/><circle cx="55.327" cy="321.203" fill="#ffd74f" r="45"/><circle cx="131.977" cy="426.703" fill="#0fdbff" r="45"/><path d="m256 422-25.592 45 25.592 45c24.853 0 45-20.147 45-45s-20.147-45-45-45z" fill="#0f9af0"/><path d="m211 467c0 24.853 20.147 45 45 45v-90c-24.853 0-45 20.147-45 45z" fill="#13bdf7"/><circle cx="380.023" cy="426.703" fill="#0a77e8" r="45"/><circle cx="456.673" cy="321.203" fill="#085aae" r="45"/><circle cx="456.673" cy="190.797" fill="#ff70c3" r="45"/><circle cx="380.023" cy="85.297" fill="#ff3cad" r="45"/><path d="m324 256h68c0-75.111-60.889-136-136-136z" fill="#13bdf7"/><path d="m256 120c-75.111 0-136 60.889-136 136h68z" fill="#c2f7ff"/><path d="m324 256c0-75.111-30.445-136-68-136l-45 68 45 68z" fill="#0fdbff"/><path d="m188 256h68v-136c-37.555 0-68 60.889-68 136z" fill="#80eeff"/></g></svg>