<svg id="Capa_1" enable-background="new 0 0 512 512" height="512" viewBox="0 0 512 512" width="512" xmlns="http://www.w3.org/2000/svg"><g><g fill="#f2f2f2"><path d="m293.5 241h68.5v30h-68.5z"/><path d="m190.643 171.419h30v68.447h-30z" transform="matrix(.707 -.707 .707 .707 -85.18 205.644)"/><path d="m171.419 291.357h68.447v30h-68.447z" transform="matrix(.707 -.707 .707 .707 -156.396 235.141)"/></g><path d="m429.5 338.5c-45.491 0-82.5-37.01-82.5-82.5s37.009-82.5 82.5-82.5 82.5 37.01 82.5 82.5-37.009 82.5-82.5 82.5z" fill="#085aae"/><path d="m112.5 225c-62.033 0-112.5-50.468-112.5-112.5s50.467-112.5 112.5-112.5 112.5 50.468 112.5 112.5-50.467 112.5-112.5 112.5z" fill="#faa52d"/><path d="m112.5 512c-62.033 0-112.5-50.468-112.5-112.5s50.467-112.5 112.5-112.5 112.5 50.468 112.5 112.5-50.467 112.5-112.5 112.5z" fill="#ff3cad"/><path d="m256 203.5-29.858 52.5 29.858 52.5c28.995 0 52.5-23.505 52.5-52.5s-23.505-52.5-52.5-52.5z" fill="#0f9af0"/><path d="m203.5 256c0 28.995 23.505 52.5 52.5 52.5v-105c-28.995 0-52.5 23.505-52.5 52.5z" fill="#13bdf7"/></g></svg>