<svg id="Capa_1" enable-background="new 0 0 512 512" height="512" viewBox="0 0 512 512" width="512" xmlns="http://www.w3.org/2000/svg"><g><path d="m147.839 128.588h30v68.5h-30z" fill="#f2f2f2" transform="matrix(.707 -.707 .707 .707 -67.45 162.84)"/><path d="m90 241h68.5v30h-68.5z" fill="#f2f2f2"/><path d="m248.5 90h22.5v332h-22.5z" fill="#dbdbdb"/><path d="m241 90h15v332h-15z" fill="#f2f2f2"/><path d="m353.5 241h68.5v30h-68.5z" fill="#dbdbdb"/><path d="m256 143.5-63.981 112.5 63.981 112.5c62.132 0 112.5-50.368 112.5-112.5s-50.368-112.5-112.5-112.5z" fill="#0f9af0"/><path d="m143.5 256c0 62.132 50.368 112.5 112.5 112.5v-225c-62.132 0-112.5 50.368-112.5 112.5z" fill="#13bdf7"/><path d="m256 0-29.858 52.5 29.858 52.5c28.995 0 52.5-23.505 52.5-52.5s-23.505-52.5-52.5-52.5z" fill="#f98825"/><path d="m203.5 52.5c0 28.995 23.505 52.5 52.5 52.5v-105c-28.995 0-52.5 23.505-52.5 52.5z" fill="#faa52d"/><path d="m112.104 164.629c-28.949 0-52.5-23.552-52.5-52.5s23.551-52.5 52.5-52.5 52.5 23.552 52.5 52.5-23.551 52.5-52.5 52.5z" fill="#0a77e8"/><path d="m52.5 308.5c-28.949 0-52.5-23.552-52.5-52.5s23.551-52.5 52.5-52.5 52.5 23.552 52.5 52.5-23.551 52.5-52.5 52.5z" fill="#ffd74f"/><path d="m256 407-29.858 52.5 29.858 52.5c28.995 0 52.5-23.505 52.5-52.5s-23.505-52.5-52.5-52.5z" fill="#ff3cad"/><path d="m203.5 459.5c0 28.995 23.505 52.5 52.5 52.5v-105c-28.995 0-52.5 23.505-52.5 52.5z" fill="#ff70c3"/><path d="m459.5 308.5c-28.948 0-52.5-23.552-52.5-52.5s23.552-52.5 52.5-52.5 52.5 23.552 52.5 52.5-23.552 52.5-52.5 52.5z" fill="#085aae"/></g></svg>