<svg id="Layer_1" enable-background="new 0 0 511.998 511.998" height="512" viewBox="0 0 511.998 511.998" width="512" xmlns="http://www.w3.org/2000/svg"><g><circle cx="255.991" cy="345.071" fill="#9ee2f8" r="166.928"/><path d="m422.919 345.071c0-92.039-74.875-166.919-166.912-166.928v333.855c92.036-.009 166.912-74.889 166.912-166.927z" fill="#5ecef4"/><g fill="#00cc76"><path d="m359.607 214.291-45.598 26.445-10.001 29.111-32.993 11.521v64.662l46.945 31.607 36.704-31.463 61.542 45.781c4.362-14.881 6.712-30.612 6.712-46.884.001-52.928-24.765-100.176-63.311-130.78z"/><path d="m175.625 367.088 1.177-14.122 34.316-26.115-26.906-71.09-52.787-21.683c-26.331 29.52-42.362 68.416-42.362 110.992 0 72.274 46.175 133.959 110.569 157.127l12.752-106.089z"/><path d="m256.015 443.673 28.153 65.934c47.529-8.114 88.265-36.386 113.073-75.68l-87.687-39.431z"/></g><path d="m359.607 214.291-45.598 26.445-10.001 29.111-32.993 11.521v64.662l46.945 31.607 36.704-31.463 61.542 45.781c4.362-14.881 6.712-30.612 6.712-46.884.001-52.928-24.765-100.176-63.311-130.78z" fill="#00aa95"/><path d="m256.015 443.673 28.153 65.934c47.529-8.114 88.265-36.386 113.073-75.68l-87.687-39.431z" fill="#00aa95"/><circle cx="256.007" cy="76.444" fill="#ff7c48" r="39.984"/><path d="m295.991 76.444c0-22.082-17.901-39.984-39.984-39.984v79.968c22.082 0 39.984-17.902 39.984-39.984z" fill="#ff415b"/><path d="m332.45 91.444v-30h-23.557c-1.178-4.146-2.826-8.095-4.892-11.782l11.791-11.791-21.212-21.214-11.792 11.791c-3.687-2.066-7.635-3.714-11.782-4.892v-23.556h-30v23.557c-4.146 1.178-8.094 2.826-11.782 4.892l-11.792-11.791-21.213 21.214 11.791 11.791c-2.066 3.687-3.714 7.636-4.891 11.782h-23.557v30h23.557c1.178 4.146 2.826 8.094 4.891 11.782l-11.791 11.79 21.213 21.214 11.791-11.791c3.687 2.066 7.636 3.714 11.782 4.892v23.557h30v-23.557c4.146-1.178 8.095-2.826 11.782-4.892l11.791 11.791 21.213-21.214-11.791-11.79c2.066-3.687 3.714-7.635 4.892-11.782h23.558zm-76.443 9.984c-13.776 0-24.983-11.208-24.983-24.984s11.206-24.984 24.983-24.984 24.983 11.208 24.983 24.984-11.207 24.984-24.983 24.984z" fill="#ff415b"/><path d="m491.698 211.138-13.187 12.054c-1.857-31.49-12.201-61.576-30.201-87.571-19.499-28.159-46.593-49.665-78.354-62.192l-11.008 27.907c26.219 10.342 48.591 28.103 64.697 51.363 14.383 20.771 22.841 44.718 24.753 69.828l-12.461-11.39-20.24 22.144 48.12 43.984 48.12-43.984z" fill="#ff7c48"/><path d="m153.05 101.336-11.01-27.907c-31.759 12.529-58.852 34.036-78.351 62.194-18.001 25.995-28.345 56.08-30.202 87.569l-13.187-12.054-20.24 22.144 48.12 43.984 48.12-43.984-20.24-22.144-12.461 11.389c1.912-25.108 10.371-49.054 24.755-69.826 16.107-23.26 38.478-41.022 64.696-51.365z" fill="#ff7c48"/><path d="m491.698 211.138-13.187 12.054c-1.857-31.49-12.201-61.576-30.201-87.571-19.499-28.159-46.593-49.665-78.354-62.192l-11.008 27.907c26.219 10.342 48.591 28.103 64.697 51.363 14.383 20.771 22.841 44.718 24.753 69.828l-12.461-11.39-20.24 22.144 48.12 43.984 48.12-43.984z" fill="#ff415b"/><path d="m332.45 91.444v-30h-23.557c-1.178-4.146-2.826-8.095-4.892-11.782l11.791-11.791-21.212-21.214-11.792 11.791c-3.687-2.066-7.635-3.714-11.782-4.892v-23.556h-15v51.46c13.776 0 24.983 11.208 24.983 24.984s-11.207 24.984-24.983 24.984v51.46h15v-23.557c4.146-1.178 8.095-2.826 11.782-4.892l11.791 11.791 21.213-21.214-11.791-11.79c2.066-3.687 3.714-7.635 4.892-11.782z" fill="#e50058"/></g></svg>